<?xml version="1.0" standalone="no"?>
<!DOCTYPE svg PUBLIC "-//W3C//DTD SVG 20010904//EN"
 "http://www.w3.org/TR/2001/REC-SVG-20010904/DTD/svg10.dtd">
<svg version="1.0" xmlns="http://www.w3.org/2000/svg"
 width="512.000000pt" height="512.000000pt" viewBox="0 0 512.000000 512.000000"
 preserveAspectRatio="xMidYMid meet">

<g transform="translate(0.000000,512.000000) scale(0.100000,-0.100000)"
fill="#000000" stroke="none">
<path d="M1810 4820 l0 -300 -750 0 -750 0 0 -150 0 -150 150 0 150 0 0 -300
0 -300 150 0 150 0 0 -1810 0 -1810 1650 0 1650 0 0 1810 0 1810 150 0 150 0
0 300 0 300 150 0 150 0 0 150 0 150 -750 0 -750 0 0 300 0 300 -750 0 -750 0
0 -300z m1200 -150 l0 -150 -450 0 -450 0 0 150 0 150 450 0 450 0 0 -150z
m1200 -600 l0 -150 -1650 0 -1650 0 0 150 0 150 1650 0 1650 0 0 -150z m-300
-2110 l0 -1660 -1350 0 -1350 0 0 1660 0 1660 1350 0 1350 0 0 -1660z"/>
<path d="M1660 1960 l0 -760 150 0 150 0 0 760 0 760 -150 0 -150 0 0 -760z"/>
<path d="M2410 1960 l0 -760 150 0 150 0 0 760 0 760 -150 0 -150 0 0 -760z"/>
<path d="M3160 1960 l0 -760 150 0 150 0 0 760 0 760 -150 0 -150 0 0 -760z"/>
</g>
</svg>
